
<svg version="1.1" id="Capa_1" xmlns="http://www.w3.org/2000/svg" xmlns:xlink="http://www.w3.org/1999/xlink" x="0px" y="0px"
	 width="40%" viewBox="0 0 300.493 300.493" style="enable-background:new 0 0 300.493 300.493;"
	 xml:space="preserve">
<g>
	<path d="M294.142,195.867l-2.334-1.882c-0.305-0.243-0.646-0.438-1.013-0.568l-124.464-44.931c-1.82-0.655-3.826,0.284-4.486,2.106
		c-0.661,1.817,0.287,3.826,2.104,4.487l123.916,44.73l1.872,1.51c2.386,1.923,3.751,4.784,3.751,7.844
		c0,5.554-4.521,10.074-10.075,10.074H17.087c-5.554,0-10.075-4.521-10.075-10.074c0-3.354,1.639-6.444,4.401-8.326l140.151-56.759
		c1.32-0.537,2.19-1.824,2.19-3.249v-17.521c0-1.936-1.571-3.504-3.505-3.504c-10.629,0-19.273-8.645-19.273-19.274
		c0-10.629,8.645-19.273,19.273-19.273c10.626,0,19.273,8.645,19.273,19.273c0,1.936,1.571,3.504,3.505,3.504
		s3.504-1.569,3.504-3.504c0-14.494-11.789-26.282-26.282-26.282c-14.494,0-26.282,11.788-26.282,26.282
		c0,13.302,9.935,24.33,22.778,26.051v11.891L8.458,194.475c-0.198,0.079-0.392,0.178-0.573,0.294
		C2.947,197.924,0,203.308,0,209.163c0,9.417,7.664,17.083,17.083,17.083H283.41c9.418,0,17.083-7.666,17.083-17.083
		C300.497,203.981,298.18,199.136,294.142,195.867z"/>
</g>

</svg>
